<svg width="24" height="24" viewBox="0 0 24 24" fill="none" xmlns="http://www.w3.org/2000/svg">
  <path d="M10 2C9.17 2 8.5 2.67 8.5 3.5V3.79C6.08 4.59 4.25 6.78 4.25 9.5V15L2.5 17V18H15V17L13.25 15V9.5C13.25 6.78 11.42 4.59 9 3.79V3.5C9 2.67 9.67 2 10.5 2H10ZM10.5 20C11.33 20 12 19.33 12 18.5H9C9 19.33 9.67 20 10.5 20Z" fill="#CCCCCC"/>
  <circle cx="18" cy="8" r="5" stroke="#CCCCCC" stroke-width="1.5" fill="none"/>
  <path d="M18 5.5V8L19.5 9.5" stroke="#CCCCCC" stroke-width="1.5" stroke-linecap="round"/>
</svg>
